<svg xmlns="http://www.w3.org/2000/svg" viewBox="0 0 230.24 187.92"><defs><style>.cls-1{fill:#260dc2;}.cls-2{fill:#fff;}</style></defs><g id="Layer_2" data-name="Layer 2"><g id="Layer_1-2" data-name="Layer 1"><path class="cls-1" d="M41.72,102.77l-1.95,0c-.62,10.23-.92,15.34-1.54,25.57-3.26.42-4.89.65-8.14,1.11-2.39-6.11-3.57-9.26-5.91-15.79-.21,3.59-.32,5.39-.52,9l2-.23c-.19,3.11-.29,4.66-.49,7.78-4.8.73-7.19,1.12-12,1.95.22-3.31.32-5,.53-8.26l2-.26c.52-8.16.79-12.23,1.31-20.38l-2,0,.53-8.26,9.66.16c2.41,7,3.64,10.36,6.1,16.89.23-3.67.34-5.5.57-9.17l-2,0c.2-3.07.29-4.6.48-7.67l11.8.2C42,98.41,41.89,99.86,41.72,102.77Z"/><path class="cls-1" d="M69.77,125.14c-4.81.36-7.21.57-12,1,.15-2.69.22-4,.36-6.72l2-.14c-.13-.67-.2-1-.33-1.67-2.84.18-4.26.28-7.1.48-.2.71-.31,1.07-.51,1.78l2-.15c-.15,2.73-.22,4.09-.37,6.82-4.8.49-7.19.76-12,1.35.17-2.86.25-4.29.42-7.16l2-.18c2.12-7.3,3.17-10.88,5.25-17.92l-2.26,0c.17-2.82.25-4.23.41-7L67.17,96c-.12,2.61-.19,3.92-.31,6.53H64.65c1.36,6.62,2,9.87,3.44,16.3l2-.11C70,121.27,69.89,122.56,69.77,125.14ZM58.41,111c-.59-2.89-.88-4.34-1.47-7.27-.87,3-1.31,4.43-2.2,7.42Z"/><path class="cls-1" d="M96.14,105.51H90.22l.1-3.08H88.37c-.21,6.17-.32,9.26-.52,15.43l2-.06-.2,6.16c-4.83.2-7.24.33-12.07.63.1-2.54.16-3.81.26-6.34l2-.09c.25-6.29.37-9.44.62-15.73h-2c0,1.27-.08,1.9-.13,3.17l-6,.08c.17-3.88.26-5.81.43-9.69l23.6.38Z"/><path class="cls-1" d="M110.07,123.45c-4.81,0-7.22.08-12,.22.06-2.43.09-3.64.16-6.07l2,0c.15-6,.22-9,.36-15.08h-2l.15-6.07,11.75.19c0,2.39,0,3.58-.09,6l-2,0-.25,14.93h2C110.13,119.86,110.11,121.06,110.07,123.45Z"/><path class="cls-1" d="M132.24,123.67c-6.23-.17-9.34-.22-15.58-.24l-3.93-3c.1-8.32.16-12.48.26-20.79l3.92-2.92,15.22.23,4,3c.06,8.32.09,12.48.16,20.8Zm-4-20.86-7.34-.11-.08,14.85c3,0,4.46.06,7.43.12C128.21,111.73,128.21,108.76,128.2,102.81Z"/><path class="cls-1" d="M165.26,103.71l-1.95-.06c.25,8.71.38,13.06.63,21.76-3.26-.26-4.9-.39-8.16-.61-2.93-5.43-4.38-8.1-7.26-13.39.07,2.76.11,4.15.18,6.91l2,.1c.05,2.43.07,3.64.12,6.07-4.82-.29-7.24-.41-12.07-.6l-.05-6,2,.07-.17-14.94-2,0c0-2.39,0-3.59-.06-6l9.66.16c2.95,5.38,4.44,8.1,7.46,13.63l-.17-7.4-2,0c-.06-2.44-.08-3.66-.14-6.1l11.8.18C165.15,100,165.19,101.21,165.26,103.71Z"/><path class="cls-1" d="M195.42,128.79c-4.78-.64-7.17-.93-11.95-1.48-.11-2.61-.16-3.92-.26-6.54l2,.19c-.19-.69-.28-1-.48-1.72-2.83-.25-4.25-.37-7.09-.6l-.35,1.6,2,.17c.1,2.59.15,3.88.24,6.46-4.78-.51-7.18-.74-12-1.16l-.2-6.24,2,.14c1.5-6.19,2.24-9.31,3.69-15.64l-2.25-.08c-.09-2.52-.13-3.79-.21-6.31l19.61.32c.11,2.69.17,4,.29,6.73l-2.2-.09c2,6.78,3,10.22,5,17.22l2,.21C195.23,124.7,195.3,126.06,195.42,128.79Zm-12.7-16.28c-.86-2.88-1.28-4.32-2.13-7.17-.61,2.79-.92,4.18-1.53,6.94Z"/><path class="cls-1" d="M220.22,132.63c-9-1.58-13.52-2.29-22.57-3.54-.13-2.75-.19-4.13-.32-6.88l2,.22c-.33-7-.49-10.47-.81-17.45l-2-.09c-.13-2.75-.19-4.13-.32-6.88l11.75.2.35,7.23-1.94-.1c.35,7.22.52,10.82.87,18l4.65.59-.18-3.68c3.17.36,4.75.55,7.92.94C219.87,125.79,220,128.07,220.22,132.63Z"/><path class="cls-1" d="M128.19,166.19a58.16,58.16,0,0,1-11.09,11c-1.79,1.37-3,1.29-4.7-.06a62.52,62.52,0,0,1-11.31-11.15c-1.82-2.4-4-2.94-6.71-2.63a24.88,24.88,0,0,1-2.8.41c-2.34,0-1.72,1.31-.93,2.31,6.41,8.14,13.34,15.75,22.27,21.27a3.12,3.12,0,0,0,3.68,0c9.39-5.89,16.81-13.74,23.22-23.15a16.23,16.23,0,0,0-4.81-.92C132.22,163.12,130.08,163.68,128.19,166.19Z"/><path class="cls-1" d="M113.42,165a4.77,4.77,0,0,1,3.35,0c4.33,1.9,6.55-.69,8.62-3.76l1.15-1.69a29.32,29.32,0,0,0-23.41,0C105.52,163.47,107.82,167.31,113.42,165Z"/><path class="cls-1" d="M230.24,99.75a3.6,3.6,0,0,0-.89-2.53c-4.5-5.52-9.56-10.52-14.36-15.76-9.09-9.92-7.17-8.89-20.49-8.89-10.76,0-10.84.09-18.95-7.08-3.63-3.21-7.39-5.44-12.42-4.59-1.93.32-2.63-.52-2.8-2.44-.74-8.42-3.46-16.46-4.78-24.8C154,24,147.71,17.1,140.67,10.75c-3.56-3.21-6.34-7.23-11.38-8.53-3.31-.86-6.6-2-10-2.14C109-.25,98.9.08,91.86,9.41a10.3,10.3,0,0,1-1.74,1.45c-7,5.93-13,12.75-14.74,22C74.07,39.78,72.66,46.65,71,53.46c-.57,2.42.9,5.94-2,7.08-2.3.91-5.24.32-7.88.21A7,7,0,0,0,56,62.44c-3.61,3.06-7.43,5.88-11.1,8.88a5.72,5.72,0,0,1-3.94,1.26c-4.74,0-9.49,0-14.23,0a10.52,10.52,0,0,0-8,3C13.21,81,7.7,86.44,2,91.72A5.34,5.34,0,0,0,.12,96.09c.07,12.34.42,24.69-.09,37-.26,6.35,1.21,11.13,6.38,14.94a8.23,8.23,0,0,0,5.31,2.06c6.54-.11,13.09-.05,19.64,0,3.42,0,3.64.37,2.27,3.61-.77,1.83-1.68,3.61-2.35,5.48-1.26,3.49-3.13,6.77-4,10.69l34.05-7.53c-2.25-1.21-4.36-.75-6.26-1.41-1.74-.6-3.76-.34-6-1.71A375.45,375.45,0,0,1,179.84,159c0,.33,0,.66,0,1l-11.75,2.17,33.79,7.69c.44.1.89.14,1.35.22,0-.36.1-.56,0-.7q-3.37-8-6.76-16c-1.28-3-1.08-3.33,2.29-3.34a57.84,57.84,0,0,1,7.68,0c8.35,1.16,15.38-1.12,21.34-7.14,1.35-1.36,2.25-2.45,2.24-4.5C230.07,125.56,230.18,112.66,230.24,99.75ZM43.58,154.66a1.15,1.15,0,0,0,0-.55A1.15,1.15,0,0,1,43.58,154.66Zm29.79-5.8A6.22,6.22,0,0,0,76,145.6,6.22,6.22,0,0,1,73.37,148.86Zm12.09-4.38a1.87,1.87,0,0,0,0-.42A1.87,1.87,0,0,1,85.46,144.48Zm6.44-2.7c0-.57,0-1.13,0-1.7,0,.57,0,1.13,0,1.7,0,1.23,0,2.46,0,3.69C91.88,144.24,91.9,143,91.9,141.78Zm.62,5.62a1.71,1.71,0,0,0,.64.16A1.71,1.71,0,0,1,92.52,147.4Zm2.35-1.91a2.26,2.26,0,0,1,.07-.53A2.26,2.26,0,0,0,94.87,145.49Zm9.43-.3a4.27,4.27,0,0,0,.06.74A4.27,4.27,0,0,1,104.3,145.19Zm1.81,1.84a1,1,0,0,0,.92-.81A1,1,0,0,1,106.11,147Zm2.51-4.36a9.59,9.59,0,0,0-1-.72h0a9.59,9.59,0,0,1,1,.72c.22.17.43.34.63.52C109.05,143,108.84,142.84,108.62,142.67Zm-1-4.58c.46.45.93.89,1.44,1.3C108.54,139,108.07,138.54,107.61,138.09ZM130,140.45c0-.9.07-1.8.08-2.7C130,138.65,130,139.55,130,140.45Zm3.7-1.35a8,8,0,0,0,.5.62A8,8,0,0,1,133.66,139.1Zm6,8.56a1.82,1.82,0,0,0,1-.2A1.82,1.82,0,0,1,139.66,147.66Zm8.83-6.34c.37.11.82.12,1.16.22C149.31,141.44,148.86,141.43,148.49,141.32Zm.3-1.65c.23,0,.49,0,.73.06C149.28,139.71,149,139.67,148.79,139.67Zm2.5,2.69a1.26,1.26,0,0,1,.1.62A1.26,1.26,0,0,0,151.29,142.36Zm3.75-1.25c0-.31,0-.61,0-.92s-.07-.78-.05-1.16c0,.38.07.81.05,1.16S155,140.8,155,141.11Zm4.06,0c.4.42.76,1,1.17,1.4C159.86,142.15,159.5,141.55,159.1,141.13Zm2.73-.6a3,3,0,0,1,0-.43A3,3,0,0,0,161.83,140.53Zm5.7-.09a1.4,1.4,0,0,0,.2,1.09A1.4,1.4,0,0,1,167.53,140.44Zm.78,1.33a3.85,3.85,0,0,1,.48.16A3.85,3.85,0,0,0,168.31,141.77Zm19.83,15.37a2.43,2.43,0,0,0,.51,0A2.43,2.43,0,0,1,188.14,157.14Zm35-17.18c-3.78,3.4-7.75,6.09-13.22,5a8,8,0,0,0-2.84,0c-8.45,1.41-16.06-1.91-23.87-4.14a1.86,1.86,0,0,1-1.39-2.39c.41-2.78-1.2-3.6-3.54-4-9.91-1.67-19.88-2.87-29.88-3.78a367.8,367.8,0,0,0-48.33-1.13,341.61,341.61,0,0,0-42.7,4.19c-2.34.39-4.68.79-7,1-1.77.19-2.56,1-2.29,2.77.35,2.27-.58,3.15-2.9,3.8-2.93.81-6.17,1.1-8.64,3.32-.46.41-1.46.29-2.2.29q-10.26,0-20.5,0a8.74,8.74,0,0,1-8.26-8.28q0-18.64,0-37.29c0-1.56.11-2.93,1.36-4.14,4.64-4.47,9.22-9,13.79-13.57a11.79,11.79,0,0,1,9-3.45c8.06.15,16.13.05,24.2.05h25c3.86,0,4.12-.42,2.46-3.81-1.2-2.47-2.21-5-3.55-7.43-2.61-4.66-2.07-9.45-1.1-14.38,1.07-5.47,2.69-10.8,3.44-16.37,1.25-9.25,7-16,14-21.65a6.77,6.77,0,0,0,1.54-1.23c5.2-7.83,13.48-7.54,21.35-7.84,3.54-.13,7.11,1,10.52,2.24a12.68,12.68,0,0,1,6.4,4.82c2.17,3.06,5.71,4.91,8.18,7.82a33.35,33.35,0,0,1,8.36,19.17C151,45.12,153,50.47,154.06,56a17.56,17.56,0,0,1-1.61,11c-1.25,2.65-2.58,5.27-3.85,7.91s-.9,3.34,2.12,3.34c15.94,0,31.88.08,47.82,0a11.84,11.84,0,0,1,9.54,4.1c5,5.57,10.12,11.05,15.26,16.5a4.82,4.82,0,0,1,1.37,3.56q0,17.07,0,34.16A4.19,4.19,0,0,1,223.12,140Z"/><path class="cls-2" d="M57.43,151.71c-1.66.3-2.49.46-4.16.79l-1.1-1.18-.05-2.78,2.15-.41,0,1.38,2-.38c0-.82,0-1.24,0-2.07l-3.09.59-1.1-1.18L52,141.61,53,140c1.67-.32,2.5-.47,4.17-.77l1.11,1.2c0,1.11,0,1.66,0,2.77l-2.15.39c0-.56,0-.84,0-1.39l-2,.37c0,.83,0,1.24,0,2.07l3.09-.57,1.1,1.2c0,1.93.05,2.9.08,4.84Z"/><path class="cls-2" d="M65.5,144.12c-.43.61-.64.92-1.06,1.54l-2.7.44,0,2.07.53-.09.05,2.76-3.22.56c0-1.11,0-1.66,0-2.77l.53-.09c0-2.76-.07-4.14-.12-6.91l-.53.1,0-2.75c2.16-.37,3.25-.55,5.41-.88l1.1,1.2C65.46,141.22,65.47,142.19,65.5,144.12ZM63.29,141l-1.63.26,0,2.07,1.63-.27Z"/><path class="cls-2" d="M66.25,150.21c0-1.1,0-1.65,0-2.76l.54-.08c0-2.75-.06-4.13-.09-6.88l-.55.09,0-2.76c2.62-.39,3.93-.57,6.55-.9l0,4.12-2.16.29,0-1.38-1.67.23c0,.82,0,1.24,0,2.06l2.1-.29c0,1.1,0,1.65,0,2.75l-2.09.29,0,2.06,1.67-.24,0-1.37c.86-.13,1.29-.18,2.16-.3l0,4.12C70.16,149.62,68.85,149.81,66.25,150.21Z"/><path class="cls-2" d="M79,148.49c-1.77.2-2.65.31-4.42.54l-1.1-1.23c0-3.83-.07-5.75-.11-9.58l1.07-1.51c1.77-.22,2.66-.32,4.44-.51l1.1,1.25,0,2.72-2.17.24V139l-2.28.27c0,2.74,0,4.11.07,6.85l2.28-.27,0-1.37,2.17-.24c0,1.08,0,1.63,0,2.71Z"/><path class="cls-2" d="M84,148c-1.3.12-1.94.19-3.23.33,0-1.09,0-1.64,0-2.73l.54-.06c0-2.73,0-4.09-.06-6.82l-.54.06c0-1.1,0-1.64,0-2.74l3.24-.31c0,1.09,0,1.64,0,2.73l-.54.05c0,2.72,0,4.08.06,6.81l.53-.05C84,146.31,84,146.85,84,148Z"/><path class="cls-2" d="M92.1,147.24l-3.23.26c0-1.08,0-1.63,0-2.71l.53,0c0-.27-.07-.41-.11-.68l-1.93.16-.11.7.54-.05c0,1.09,0,1.63,0,2.71-1.3.11-1.94.17-3.23.3,0-1.08,0-1.63,0-2.71l.53-.05,1.1-6.92-.62,0c0-1.08,0-1.63,0-2.71,2.17-.19,3.25-.27,5.41-.43,0,1.09,0,1.63,0,2.71l-.61,0,1.2,6.71.53,0C92.09,145.62,92.09,146.16,92.1,147.24Zm-3.32-5.85c-.21-1.16-.31-1.74-.52-2.9-.19,1.19-.29,1.79-.47,3Z"/><path class="cls-2" d="M98.83,146.81c-2.46.13-3.68.21-6.13.39v-2.7l.53,0c0-2.71,0-4.07,0-6.79l-.54,0c0-1.08,0-1.62,0-2.7l3.24-.19c0,1.07,0,1.61,0,2.69l-.53,0c0,2.71,0,4.07,0,6.78l1.26-.08v-1.35l2.16-.12C98.82,144.39,98.82,145.19,98.83,146.81Z"/><path class="cls-2" d="M102.78,146.62l-3.24.15c0-1.08,0-1.62,0-2.7l.54,0c0-2.69,0-4,0-6.74l-.54,0v-2.71c1.29-.06,1.94-.08,3.24-.12v2.69l-.54,0c0,2.7,0,4,0,6.74l.53,0C102.77,145,102.77,145.54,102.78,146.62Z"/><path class="cls-2" d="M108.72,146.44c-1.67,0-2.51.06-4.19.12l-1.08-1.31c0-1.08,0-1.62,0-2.7l2.17-.07v1.35l2-.06v-2l-3.11.09-1.09-1.31c0-1.89,0-2.83,0-4.72l1.08-1.38c1.69-.05,2.53-.06,4.21-.09l1.09,1.33v2.69l-2.17,0v-1.35l-2,.05v2c1.24,0,1.87-.05,3.11-.07l1.09,1.32v4.7C109.37,145.61,109.16,145.89,108.72,146.44Z"/><path class="cls-2" d="M116.87,138.34h-1.62V137h-.54c0,2.67,0,4,0,6.68h.54v2.67l-3.24,0v-2.69h.55V137H112v1.34l-1.63,0v-4c2.61,0,3.91,0,6.52,0C116.87,135.94,116.87,136.74,116.87,138.34Z"/><path class="cls-2" d="M126.24,146.52c-2.3-.08-3.45-.1-5.75-.13v-2.66H121c0-2.67,0-4,0-6.67h-.54c0-1.06,0-1.59,0-2.65,2.31.05,3.46.08,5.77.17l1.08,1.38,0,9.27Zm-1-9.33-2-.07c0,2.67,0,4,0,6.67l2,.05C125.19,141.18,125.19,139.85,125.2,137.19Z"/><path class="cls-2" d="M135.41,146.94l-3.23-.18c0-1,0-1.58,0-2.63l.54,0-.11-.68-1.93-.1c0,.27-.07.4-.11.67l.53,0c0,1,0,1.58,0,2.63l-3.23-.14c0-1,0-1.58,0-2.64l.53,0c.48-2.64.71-4,1.19-6.59l-.62,0,0-2.64c2.16.1,3.25.17,5.41.31,0,1.05,0,1.57,0,2.62l-.6,0,1.1,6.68.54,0C135.42,145.37,135.42,145.89,135.41,146.94Zm-3.24-6.13c-.19-1.16-.29-1.73-.49-2.89-.2,1.13-.3,1.7-.51,2.83Z"/><path class="cls-2" d="M142.43,139.56l-1.61-.14c0-.53,0-.79,0-1.32l-.54,0c0,2.63,0,3.94-.06,6.57l.54,0c0,1.06,0,1.59,0,2.64-1.3-.1-1.95-.15-3.25-.23l0-2.65.55,0,.05-6.58-.55,0v1.32l-1.63-.11c0-1.59,0-2.38,0-4,2.61.18,3.91.29,6.51.52C142.46,137.19,142.45,138,142.43,139.56Z"/><path class="cls-2" d="M150.35,148.19l-3.23-.33c0-1,0-1.56,0-2.6l.53.05c0-.27-.06-.4-.11-.67l-1.92-.19c-.05.26-.07.39-.12.65l.53.05c0,1,0,1.57,0,2.61l-3.23-.29c0-1,0-1.56,0-2.61l.54,0c.48-2.59.73-3.89,1.21-6.47l-.61-.06c0-1,0-1.57,0-2.61,2.16.2,3.24.31,5.4.55,0,1.05,0,1.57,0,2.61l-.61-.07c.43,2.67.65,4,1.08,6.68l.53.05C150.36,146.63,150.36,147.15,150.35,148.19ZM147.14,142c-.19-1.16-.29-1.73-.48-2.88-.21,1.11-.31,1.66-.52,2.78Z"/><path class="cls-2" d="M156.46,148.91c-2.23-.28-3.34-.41-5.57-.66l0-2.61.53.06c0-2.61.05-3.92.08-6.53l-.53-.06c0-1,0-1.56,0-2.6,2.23.26,3.35.4,5.58.7l1.06,1.45,0,3.89-.56.57.54.73,0,3.89Zm-1-9.25-1.8-.23c0,.79,0,1.18,0,2l1.8.22Zm-.06,4.56-1.79-.23c0,.79,0,1.18,0,2l1.79.21Z"/><path class="cls-2" d="M165.58,150.19l-3.21-.48,0-2.58.53.08-.1-.67-1.92-.28-.12.64.53.07c0,1,0,1.55,0,2.59-1.29-.19-1.93-.27-3.22-.44l0-2.59.53.07c.5-2.54.75-3.81,1.24-6.35l-.62-.08c0-1,0-1.55,0-2.59,2.16.31,3.23.47,5.39.82,0,1,0,1.54,0,2.57l-.6-.09,1.05,6.66.53.08C165.61,148.65,165.6,149.16,165.58,150.19Zm-3.17-6.32c-.19-1.15-.28-1.72-.47-2.87-.21,1.09-.32,1.63-.53,2.72Z"/><path class="cls-2" d="M171.37,151.15c-1.67-.29-2.5-.43-4.17-.7l-1-1.47c0-1,0-1.55,0-2.59l2.15.36,0,1.29,2,.34c0-.77,0-1.16,0-1.93l-3.1-.52-1.05-1.47.06-4.52,1.1-1.12c1.67.28,2.51.43,4.18.73l1.05,1.49c0,1,0,1.55,0,2.58l-2.15-.39c0-.52,0-.77,0-1.29l-2-.35,0,1.93,3.09.54c.43.59.64.89,1.06,1.48,0,1.8,0,2.7-.08,4.51Z"/><path class="cls-2" d="M173.1,151.45c0-1,0-1.54,0-2.58l.55.1.1-6.42-.54-.1c0-1,0-1.55,0-2.58,2.61.49,3.91.75,6.51,1.29,0,1.54,0,2.31-.06,3.85l-2.15-.44,0-1.28L176,143l0,1.92,2.08.41c0,1,0,1.54,0,2.57l-2.08-.41c0,.77,0,1.16,0,1.92l1.66.32c0-.51,0-.77,0-1.28l2.15.43c0,1.54,0,2.31-.07,3.85C177,152.17,175.7,151.92,173.1,151.45Z"/><path class="cls-1" d="M93.81,63.16c-.62-3-1.37-6.08-1.84-9.17-2.52-16.73,5-34.44,18-42.89,3-2,6-2.15,9-.09q20,13.65,19.24,39.68a41.26,41.26,0,0,1-2.17,12,60.57,60.57,0,0,0,.65-16.3A40.89,40.89,0,0,0,132,30.85c-2,8-6.94,11.84-13.71,13.3-.39.09-.79.08-1.17.15-1.33.25-2-.14-1.91-1.86.11-1.46,0-2.94,0-4.41,0-.1.06-.2,0-.15a42.84,42.84,0,0,0,5.43-1.59c4-1.74,6.43-5.08,7.45-9.66a3.27,3.27,0,0,0-.49-2.46,59.61,59.61,0,0,0-6.54-6.29,5.4,5.4,0,0,0-6.17-.66,1,1,0,0,1-.8,0c-2-1-3.86-.5-5.67.5a22.2,22.2,0,0,0-7.15,7.18,2.74,2.74,0,0,0-.16,1.81c1.25,5.93,6.08,10.39,11.65,10.81.48,0,1,0,1.6.08,0,2,.11,3.94,0,5.88,0,.33-.79.87-1.22.87A16.54,16.54,0,0,1,97.54,31C92.36,41.4,92,52.07,94.22,63.08Z"/><path class="cls-1" d="M87.11,47.63c.65-1.42,1.29-2.84,1.94-4.27,0,10.58,2.25,20.37,7.56,29.22C91.86,66.77,88,60.5,87.78,51.82l-2.87,4.26c-3.81-12.44.46-28.11,12-37.93a43.93,43.93,0,0,0-7.36,13.67A45.4,45.4,0,0,0,87.11,47.63Z"/><path class="cls-1" d="M141,42.77c.68,1.42,1.36,2.83,2.14,4.43.29-7.15-2.75-20.62-10.55-29.36,3,1,9.49,10.14,11.8,16.49,2.44,6.73,2.92,16,1,21.11l-3-4.28a26.84,26.84,0,0,1-2.36,11.39,37.43,37.43,0,0,1-5.81,9.32A56.22,56.22,0,0,0,141,42.77Z"/><path class="cls-1" d="M111.2,63.39l1.93.37c.4-1.26.13-2-1.07-2.29-.85-.21-1.39-.77-1.11-2l2,.42c.22-1.13.21-1.93-1-2.2-.85-.18-1.56-.73-1.16-2.1l2,.39.07-2.39,4.24-.05,0,2.42,2-.51a1.4,1.4,0,0,1-1,2.16c-1.2.31-1.3,1.05-1,2.21l1.93-.44a1.42,1.42,0,0,1-1,2.07c-1.2.3-1.28,1.08-1,2.27l1.91-.37a1.33,1.33,0,0,1-1.08,1.9c-1.12.25-1.28.94-1,2.1l1.8-.42c.44,1.28-.33,1.71-1.14,1.93s-1.08.75-.84,1.73l1.7-.3.27.44-2.33,2.21.27.38L118,73l.26.41-2.1,1.75.16.31h1.36l.13.31-2,1.3,1.29.31c0,.1,0,.25,0,.29-1.31,1.18-2.59,1.15-4-.27l1.32-.11.08-.31L112.61,76l.09-.32,1.33,0,.26-.36-2.14-1.69.13-.4,1.5.13.31-.35-2.41-2.14.22-.46,1.72.27c.28-.86.24-1.43-.7-1.69s-1.65-.51-1.39-1.92l1.85.33c.33-1.16.1-1.8-1-2A1.38,1.38,0,0,1,111.2,63.39Z"/><path class="cls-1" d="M99.62,80.56c-2.12-1.55-4.31-3-6.34-4.7s-3.88-3.64-6-5.64l.39,3.26c-5.81-5.07-8.79-18.18-6-26.7-.28,6.6.25,13,3.64,19,.39-1.53.72-2.78,1.14-4.41A50.66,50.66,0,0,0,99.89,80.19Z"/><path class="cls-1" d="M143,72.83l.38-3.61A45.16,45.16,0,0,1,131,80a52.93,52.93,0,0,0,13-19.2c.28.94.47,1.53.64,2.13s.31,1.26.56,2.28c3.32-6.21,3.73-12.69,3.24-19.36C151.34,54.5,148.76,67.54,143,72.83Z"/><path class="cls-1" d="M113.52,50.46c-1.07-1.37-2-.72-2.89.14a8.38,8.38,0,0,0-2.09,9.84,8,8,0,0,1,.4,6.28,3.93,3.93,0,0,0,.75,4.09,4.33,4.33,0,0,1,1,3.44c-.09,1,.19,2.07,0,3.21-.2-1-.38-2-.62-2.93a12.09,12.09,0,0,0-.94-3.26c-1-1.6-1.55-3.15-.82-5a6.54,6.54,0,0,0-.3-5c-1.94-4.69-1-8.59,2.59-11.71C112.14,48.15,112.55,48.26,113.52,50.46Z"/><path class="cls-1" d="M119.55,77.43c.09-1.19.08-2.39.28-3.55a9.8,9.8,0,0,1,1-3.24,4.43,4.43,0,0,0,.54-4.15,7.78,7.78,0,0,1,.26-6.13,8.38,8.38,0,0,0-2.47-10c-.81-.67-1.6-1.35-2.55,0,.64-2,1-2.2,2.38-1.24,3.9,2.79,5.12,7,3.29,11.76a7,7,0,0,0-.21,5.36,4.47,4.47,0,0,1-.62,4.58,5.5,5.5,0,0,0-1.06,3.91,10.56,10.56,0,0,1-.69,2.93Z"/><polygon class="cls-1" points="138.42 95.77 136.68 93.91 134.22 95.02 135.11 92.58 132.98 91.14 135.61 90.56 135.94 88.01 137.68 89.87 140.14 88.76 139.25 91.2 141.38 92.64 138.75 93.22 138.42 95.77"/><polygon class="cls-1" points="131.29 91.31 129.14 89.9 126.98 91.5 127.28 88.95 124.84 88.03 127.29 86.9 127.02 84.38 129.17 85.79 131.33 84.19 131.03 86.74 133.47 87.66 131.02 88.8 131.29 91.31"/><polygon class="cls-1" points="123.22 88.56 120.77 87.66 119.01 89.66 118.71 87.14 116.08 86.78 118.23 85.16 117.37 82.79 119.82 83.69 121.58 81.69 121.88 84.21 124.5 84.57 122.35 86.19 123.22 88.56"/><polygon class="cls-1" points="114.61 87.64 111.98 87.3 110.72 89.6 109.83 87.24 107.16 87.45 108.89 85.44 107.48 83.34 110.11 83.68 111.37 81.38 112.26 83.73 114.93 83.52 113.19 85.54 114.61 87.64"/><polygon class="cls-1" points="105.9 88.6 103.23 88.84 102.54 91.33 101.1 89.25 98.52 90.03 99.75 87.71 97.87 85.99 100.54 85.76 101.23 83.27 102.67 85.34 105.25 84.57 104.02 86.89 105.9 88.6"/><polygon class="cls-1" points="97.55 91.4 94.98 92.2 94.88 94.75 92.97 93.05 90.61 94.36 91.28 91.86 89.02 90.61 91.59 89.81 91.69 87.26 93.6 88.96 95.96 87.65 95.29 90.15 97.55 91.4"/></g></g></svg>